<svg xmlns="http://www.w3.org/2000/svg" viewBox="0 0 800 520" role="img" aria-labelledby="title desc">
  <title id="title">Multi-omics project placeholder</title>
  <desc id="desc">Abstract diagram representing integrated molecular data streams for cancer subtype classification.</desc>
  <rect width="800" height="520" fill="#f7f4ee"/>
  <g transform="translate(88 110)">
    <rect width="130" height="62" rx="16" fill="#ffffff" stroke="#d8d1c5" stroke-width="2"/>
    <rect y="88" width="130" height="62" rx="16" fill="#ffffff" stroke="#d8d1c5" stroke-width="2"/>
    <rect y="176" width="130" height="62" rx="16" fill="#ffffff" stroke="#d8d1c5" stroke-width="2"/>
    <rect y="264" width="130" height="62" rx="16" fill="#ffffff" stroke="#d8d1c5" stroke-width="2"/>
    <text x="24" y="39" fill="#1e4a3a" font-family="Roboto, Arial, sans-serif" font-size="22" font-weight="700">mRNA</text>
    <text x="28" y="127" fill="#1e4a3a" font-family="Roboto, Arial, sans-serif" font-size="22" font-weight="700">miRNA</text>
    <text x="22" y="215" fill="#1e4a3a" font-family="Roboto, Arial, sans-serif" font-size="22" font-weight="700">CNV</text>
    <text x="4" y="303" fill="#1e4a3a" font-family="Roboto, Arial, sans-serif" font-size="22" font-weight="700">Methylation</text>
  </g>
  <g>
    <path d="M260 142 C338 142, 338 206, 416 206" fill="none" stroke="#7d8f85" stroke-width="4"/>
    <path d="M260 230 C338 230, 338 230, 416 230" fill="none" stroke="#7d8f85" stroke-width="4"/>
    <path d="M260 318 C338 318, 338 254, 416 254" fill="none" stroke="#7d8f85" stroke-width="4"/>
    <path d="M260 406 C338 406, 338 278, 416 278" fill="none" stroke="#7d8f85" stroke-width="4"/>
  </g>
  <rect x="416" y="178" width="146" height="126" rx="22" fill="#1e4a3a"/>
  <text x="449" y="252" fill="#ffffff" font-family="Roboto, Arial, sans-serif" font-size="28" font-weight="700">XGBoost</text>
  <path d="M562 241 L664 241" fill="none" stroke="#1e4a3a" stroke-width="4" stroke-dasharray="8 8"/>
  <rect x="664" y="188" width="86" height="106" rx="18" fill="#ffffff" stroke="#d8d1c5" stroke-width="2"/>
  <text x="687" y="232" fill="#1e4a3a" font-family="Roboto, Arial, sans-serif" font-size="20" font-weight="700">Subtype</text>
  <text x="686" y="262" fill="#66706a" font-family="Roboto, Arial, sans-serif" font-size="16">Prediction</text>
  <text x="80" y="472" fill="#66706a" font-family="Roboto, Arial, sans-serif" font-size="22">Integrated molecular signals for breast cancer subtype classification</text>
</svg>
